<svg xmlns="http://www.w3.org/2000/svg" xmlns:xlink="http://www.w3.org/1999/xlink" width="30.383" height="30.826" viewBox="0 0 30.383 30.826">
  <defs>
    <filter id="path2066" x="0" y="12.203" width="30.383" height="18.623" filterUnits="userSpaceOnUse">
      <feOffset input="SourceAlpha"/>
      <feGaussianBlur stdDeviation="1" result="blur"/>
      <feFlood flood-opacity="0.329"/>
      <feComposite operator="in" in2="blur"/>
      <feComposite in="SourceGraphic"/>
    </filter>
    <filter id="path2068" x="7.228" y="0" width="21.536" height="18.095" filterUnits="userSpaceOnUse">
      <feOffset input="SourceAlpha"/>
      <feGaussianBlur stdDeviation="1" result="blur-2"/>
      <feFlood flood-opacity="0.329"/>
      <feComposite operator="in" in2="blur-2"/>
      <feComposite in="SourceGraphic"/>
    </filter>
    <filter id="path2070" x="0" y="12.203" width="30.383" height="18.623" filterUnits="userSpaceOnUse">
      <feOffset input="SourceAlpha"/>
      <feGaussianBlur stdDeviation="1" result="blur-3"/>
      <feFlood flood-opacity="0.329"/>
      <feComposite operator="in" in2="blur-3"/>
      <feComposite in="SourceGraphic"/>
    </filter>
  </defs>
  <g id="at_home" data-name="at home" transform="translate(-156.144 -156.877)">
    <g id="_2150605686496" transform="translate(152.7 153.022)">
      <g id="g2072" transform="translate(6.444 6.855)">
        <g transform="matrix(1, 0, 0, 1, -3, -3)" filter="url(#path2066)">
          <path id="path2066-2" data-name="path2066" d="M14.428,7.523H11.407V6.337H9.788c-.108.539-.216,1.079-.324,1.726s-.216,1.4-.324,2.266H11.3a12.389,12.389,0,0,1,.108-2.05h3.129c.108.647.216,1.295.324,2.05h2.158q-.324-1.295-.647-2.266a15.364,15.364,0,0,1-.539-1.726H14.212A5.567,5.567,0,0,0,14.428,7.523Zm10.9,3.884c-.539-.647-.971-1.295-1.4-1.834a18.444,18.444,0,0,0-1.187-1.51Q21.764,6.768,21.117,5.8c-1.618-.324-3.129-.647-4.531-.863-1.4-.324-2.7-.539-3.884-.863a11.287,11.287,0,0,1-1.834.432l-1.942.324c-1.4.324-2.913.647-4.423.863-.432.755-.971,1.51-1.51,2.266a10.781,10.781,0,0,1-.863,1.51A17.572,17.572,0,0,1,.942,11.3c1.726.755,3.452,1.51,5.5,2.374.971.432,2.158.863,3.237,1.4q1.78.809,3.884,1.618c2.374-1.079,4.639-2.158,6.581-3.021Q22.9,12.378,25.324,11.407ZM19.282,6.229c.324.539.647,1.187,1.079,1.834s.863,1.51,1.4,2.374c-1.187.432-2.481.971-3.884,1.51s-2.913,1.079-4.531,1.726c-1.726-.647-3.345-1.187-4.855-1.834-1.51-.539-2.805-.971-4.1-1.51.432-.863.755-1.618,1.079-2.266s.539-1.295.863-1.834A30.391,30.391,0,0,0,9.68,5.473c1.079-.216,2.05-.432,3.021-.647.971.216,2.05.432,3.129.755C16.909,5.8,18.1,6.013,19.282,6.229Z" transform="translate(2.06 11.13)"/>
        </g>
        <g transform="matrix(1, 0, 0, 1, -3, -3)" filter="url(#path2068)">
          <path id="path2068-2" data-name="path2068" d="M7.328,13.034l4.963-5.718H9.27c0-2.589,4.1-6.8,9.063-3.452-7.66-7.121-12.515.647-12.515,3.452H2.8Z" transform="translate(7.43 2.06)" fill="#fefefe"/>
        </g>
        <g transform="matrix(1, 0, 0, 1, -3, -3)" filter="url(#path2070)">
          <path id="path2070-2" data-name="path2070" d="M14.428,7.523H11.407V6.337H9.788c-.108.539-.216,1.079-.324,1.726s-.216,1.4-.324,2.266H11.3a12.389,12.389,0,0,1,.108-2.05h3.129c.108.647.216,1.295.324,2.05h2.158q-.324-1.295-.647-2.266a15.364,15.364,0,0,1-.539-1.726H14.212A5.567,5.567,0,0,0,14.428,7.523Zm10.9,3.884c-.539-.647-.971-1.295-1.4-1.834a18.444,18.444,0,0,0-1.187-1.51Q21.764,6.768,21.117,5.8c-1.618-.324-3.129-.647-4.531-.863-1.4-.324-2.7-.539-3.884-.863a11.287,11.287,0,0,1-1.834.432l-1.942.324c-1.4.324-2.913.647-4.423.863-.432.755-.971,1.51-1.51,2.266a10.781,10.781,0,0,1-.863,1.51A17.572,17.572,0,0,1,.942,11.3c1.726.755,3.452,1.51,5.5,2.374.971.432,2.158.863,3.237,1.4q1.78.809,3.884,1.618c2.374-1.079,4.639-2.158,6.581-3.021Q22.9,12.378,25.324,11.407ZM19.282,6.229c.324.539.647,1.187,1.079,1.834s.863,1.51,1.4,2.374c-1.187.432-2.481.971-3.884,1.51s-2.913,1.079-4.531,1.726c-1.726-.647-3.345-1.187-4.855-1.834-1.51-.539-2.805-.971-4.1-1.51.432-.863.755-1.618,1.079-2.266s.539-1.295.863-1.834A30.391,30.391,0,0,0,9.68,5.473c1.079-.216,2.05-.432,3.021-.647.971.216,2.05.432,3.129.755C16.909,5.8,18.1,6.013,19.282,6.229Z" transform="translate(2.06 11.13)" fill="#fefefe"/>
        </g>
      </g>
    </g>
  </g>
</svg>
