<svg xmlns="http://www.w3.org/2000/svg" xmlns:xlink="http://www.w3.org/1999/xlink" width="17" height="23" viewBox="0 0 17 23">
  <defs>
    <filter id="Retângulo_4" x="0" y="1" width="17" height="22" filterUnits="userSpaceOnUse">
      <feOffset input="SourceAlpha"/>
      <feGaussianBlur stdDeviation="1" result="blur"/>
      <feFlood flood-opacity="0.729"/>
      <feComposite operator="in" in2="blur"/>
      <feComposite in="SourceGraphic"/>
    </filter>
    <filter id="Retângulo_5" x="4" y="0" width="9" height="7" filterUnits="userSpaceOnUse">
      <feOffset input="SourceAlpha"/>
      <feGaussianBlur stdDeviation="1" result="blur-2"/>
      <feFlood flood-opacity="0.729"/>
      <feComposite operator="in" in2="blur-2"/>
      <feComposite in="SourceGraphic"/>
    </filter>
    <filter id="Retângulo_6" x="2" y="12" width="13" height="9" filterUnits="userSpaceOnUse">
      <feOffset input="SourceAlpha"/>
      <feGaussianBlur stdDeviation="1" result="blur-3"/>
      <feFlood flood-opacity="0.729"/>
      <feComposite operator="in" in2="blur-3"/>
      <feComposite in="SourceGraphic"/>
    </filter>
    <filter id="Retângulo_7" x="2" y="9" width="13" height="8" filterUnits="userSpaceOnUse">
      <feOffset input="SourceAlpha"/>
      <feGaussianBlur stdDeviation="1" result="blur-4"/>
      <feFlood flood-opacity="0.729"/>
      <feComposite operator="in" in2="blur-4"/>
      <feComposite in="SourceGraphic"/>
    </filter>
    <filter id="Retângulo_8" x="2" y="6" width="13" height="8" filterUnits="userSpaceOnUse">
      <feOffset input="SourceAlpha"/>
      <feGaussianBlur stdDeviation="1" result="blur-5"/>
      <feFlood flood-opacity="0.729"/>
      <feComposite operator="in" in2="blur-5"/>
      <feComposite in="SourceGraphic"/>
    </filter>
    <filter id="Retângulo_21" x="2" y="3" width="13" height="8" filterUnits="userSpaceOnUse">
      <feOffset input="SourceAlpha"/>
      <feGaussianBlur stdDeviation="1" result="blur-6"/>
      <feFlood flood-opacity="0.729"/>
      <feComposite operator="in" in2="blur-6"/>
      <feComposite in="SourceGraphic"/>
    </filter>
  </defs>
  <g transform="matrix(1, 0, 0, 1, 0, 0)" filter="url(#Retângulo_4)">
    <g id="Retângulo_4-2" data-name="Retângulo 4" transform="translate(3 4)" fill="none" stroke="#fff" stroke-width="1">
      <rect width="11" height="16" stroke="none"/>
      <rect x="0.5" y="0.5" width="10" height="15" fill="none"/>
    </g>
  </g>
  <g transform="matrix(1, 0, 0, 1, 0, 0)" filter="url(#Retângulo_5)">
    <g id="Retângulo_5-2" data-name="Retângulo 5" transform="translate(7 3)" fill="none" stroke="#fff" stroke-width="1">
      <rect width="3" height="1" stroke="none"/>
      <rect x="0.5" y="0.5" width="2" fill="none"/>
    </g>
  </g>
  <g transform="matrix(1, 0, 0, 1, 0, 0)" filter="url(#Retângulo_6)">
    <g id="Retângulo_6-2" data-name="Retângulo 6" transform="translate(5 15)" fill="#fff" stroke="#fff" stroke-width="1">
      <rect width="7" height="3" stroke="none"/>
      <rect x="0.5" y="0.5" width="6" height="2" fill="none"/>
    </g>
  </g>
  <g transform="matrix(1, 0, 0, 1, 0, 0)" filter="url(#Retângulo_7)">
    <g id="Retângulo_7-2" data-name="Retângulo 7" transform="translate(5 12)" fill="#fff" stroke="#fff" stroke-width="1">
      <rect width="7" height="2" stroke="none"/>
      <rect x="0.5" y="0.5" width="6" height="1" fill="none"/>
    </g>
  </g>
  <g transform="matrix(1, 0, 0, 1, 0, 0)" filter="url(#Retângulo_8)">
    <g id="Retângulo_8-2" data-name="Retângulo 8" transform="translate(5 9)" fill="#fff" stroke="#fff" stroke-width="1">
      <rect width="7" height="2" stroke="none"/>
      <rect x="0.5" y="0.5" width="6" height="1" fill="none"/>
    </g>
  </g>
  <g transform="matrix(1, 0, 0, 1, 0, 0)" filter="url(#Retângulo_21)">
    <g id="Retângulo_21-2" data-name="Retângulo 21" transform="translate(5 6)" fill="#fff" stroke="#fff" stroke-width="1">
      <rect width="7" height="2" stroke="none"/>
      <rect x="0.5" y="0.5" width="6" height="1" fill="none"/>
    </g>
  </g>
</svg>
