<svg xmlns="http://www.w3.org/2000/svg" width="70" height="70" viewBox="0 0 70 70">
  <g id="RADAR" transform="translate(-10 -293.934)">
    <g id="Grupo_12" data-name="Grupo 12" transform="translate(-259 132.938)">
      <line id="Linha_18" data-name="Linha 18" x2="69" transform="translate(269.5 196.562)" fill="none" stroke="#fff" stroke-width="0.4"/>
      <path id="Caminho_23" data-name="Caminho 23" d="M1760,193.381V227.95" transform="translate(-1455.808 3.045)" fill="none" stroke="#fff" stroke-width="0.5"/>
      <g id="Caminho_27" data-name="Caminho 27" transform="translate(269 160.996)" fill="none">
        <path d="M35,0A35.083,35.083,0,0,1,69.622,29.837,34.3,34.3,0,0,1,70,35,35,35,0,1,1,35,0Z" stroke="none"/>
        <path d="M 35 0.8000030517578125 C 30.3826789855957 0.8000030517578125 25.90390014648438 1.704132080078125 21.68806076049805 3.487281799316406 C 17.61565017700195 5.209770202636719 13.95808029174805 7.675819396972656 10.81695175170898 10.81695175170898 C 7.675819396972656 13.95808029174805 5.209770202636719 17.61565017700195 3.487281799316406 21.68806076049805 C 1.704132080078125 25.90390014648438 0.8000030517578125 30.3826789855957 0.8000030517578125 35 C 0.8000030517578125 39.61731719970703 1.704132080078125 44.09609985351562 3.487281799316406 48.31193923950195 C 5.209770202636719 52.38434982299805 7.675819396972656 56.04191970825195 10.81695175170898 59.18305206298828 C 13.95808029174805 62.32418060302734 17.61565017700195 64.79022979736328 21.68806076049805 66.51271820068359 C 25.90390014648438 68.29586791992188 30.3826789855957 69.19999694824219 35 69.19999694824219 C 39.61731719970703 69.19999694824219 44.09609985351562 68.29586791992188 48.31193923950195 66.51271820068359 C 52.38434982299805 64.79022979736328 56.04191970825195 62.32418060302734 59.18305206298828 59.18305206298828 C 62.32418060302734 56.04191970825195 64.79022979736328 52.38434982299805 66.51271820068359 48.31193923950195 C 68.29586791992188 44.09609985351562 69.19999694824219 39.61731719970703 69.19999694824219 35 C 69.19999694824219 33.26063919067383 69.06916046142578 31.47127151489258 68.83148193359375 29.96078872680664 C 68.19136047363281 25.86877059936523 66.85073852539062 21.97232818603516 64.84687805175781 18.37968826293945 C 62.89093017578125 14.87295913696289 60.36529922485352 11.76287841796875 57.34016036987305 9.135848999023438 C 54.30117034912109 6.496791839599609 50.86348724365234 4.437370300292969 47.12261199951172 3.014778137207031 C 43.25807189941406 1.545158386230469 39.17942810058594 0.8000030517578125 35 0.8000030517578125 M 35 0 C 52.47428894042969 0 66.95761871337891 12.80580139160156 69.62187194824219 29.83715057373047 C 69.85558319091797 31.32238006591797 70 33.14432907104492 70 35 C 70 54.32995986938477 54.32995986938477 70 35 70 C 15.67004013061523 70 0 54.32995986938477 0 35 C 0 15.67004013061523 15.67004013061523 0 35 0 Z" stroke="none" fill="#fff"/>
      </g>
    </g>
  </g>
</svg>
