<svg xmlns="http://www.w3.org/2000/svg" xmlns:xlink="http://www.w3.org/1999/xlink" width="37.296" height="38.564" viewBox="0 0 37.296 38.564">
  <defs>
    <filter id="path6758" x="4.466" y="15.19" width="28.685" height="18.594" filterUnits="userSpaceOnUse">
      <feOffset input="SourceAlpha"/>
      <feGaussianBlur stdDeviation="0.75" result="blur"/>
      <feFlood/>
      <feComposite operator="in" in2="blur"/>
      <feComposite in="SourceGraphic"/>
    </filter>
    <filter id="path6760" x="9.693" y="3.279" width="17.911" height="23.997" filterUnits="userSpaceOnUse">
      <feOffset input="SourceAlpha"/>
      <feGaussianBlur stdDeviation="1.25" result="blur-2"/>
      <feFlood flood-opacity="0.78"/>
      <feComposite operator="in" in2="blur-2"/>
      <feComposite in="SourceGraphic"/>
    </filter>
  </defs>
  <g id="pouso" transform="translate(0.16 0)">
    <path id="path2058-5" d="M12.526,22.874A18.971,18.971,0,0,1,31.237,42.091c0,10.647-8.414,19.347-18.711,19.347s-18.585-8.7-18.585-19.347S2.229,22.874,12.526,22.874Z" transform="translate(5.9 -22.874)" fill="rgba(0,0,0,0.58)"/>
    <g transform="matrix(1, 0, 0, 1, -0.16, 0)" filter="url(#path6758)">
      <path id="path6758-2" data-name="path6758" d="M20.768,8.173A19.538,19.538,0,0,0,21.889,10.9c-1.281.641-2.723,1.121-4,1.762-1.441.641-3.043,1.281-4.645,1.922-1.762-.641-3.2-1.281-4.8-1.922-1.441-.641-2.723-1.121-4-1.762.32-.961.641-1.762.961-2.723.32-.641.48-1.441.8-2.082,1.281-.32,2.4-.641,3.524-.961s2.242-.48,3.363-.8c.961.32,2.082.48,3.2.8s2.4.641,3.684.961A11.121,11.121,0,0,0,20.768,8.173Zm2.563,0a15.162,15.162,0,0,1-1.441-2.723c-1.762-.32-3.2-.8-4.8-1.121-1.441-.32-2.723-.641-4.164-.961L11,3.849c-.641.16-1.441.32-2.082.48-1.6.32-3.043.8-4.645,1.121-.48.8-.961,1.762-1.441,2.723a8.584,8.584,0,0,1-.8,1.762c-.32.641-.641,1.281-.961,2.082,1.762.8,3.524,1.6,5.446,2.4.961.48,2.082.961,3.2,1.441a23.58,23.58,0,0,0,3.524,1.6c2.4-.961,4.645-2.082,6.567-3.043,1.922-.8,3.844-1.6,5.446-2.4-.32-.8-.8-1.441-1.121-2.082A8.584,8.584,0,0,1,23.331,8.173Z" transform="translate(5.65 14.07)" fill="#fff"/>
    </g>
    <g transform="matrix(1, 0, 0, 1, -0.16, 0)" filter="url(#path6760)">
      <path id="path6760-2" data-name="path6760" d="M5.356,5.023h5.125V3.1H5.356Zm0-2.4h5.125V.7H5.356Zm5.125,3.043H5.356l.16,4.965-2.723.16L7.919,17.2,13.2,10.629H10.481Z" transform="translate(10.65 6.33)" fill="#fff"/>
    </g>
  </g>
</svg>
