<svg width="26" height="20" viewBox="0 0 26 20" fill="none" xmlns="http://www.w3.org/2000/svg">
<g filter="url(#filter0_d_0_1)">
<path d="M23.7975 12.4883C23.3157 11.9159 22.9295 11.3425 22.5461 10.8656C22.2161 10.4023 21.8619 9.95633 21.4851 9.52951C20.9029 8.76563 20.419 8.09818 20.0335 7.52719C18.5872 7.24051 17.2366 6.95471 15.9834 6.76359C14.732 6.47691 13.57 6.28668 12.5117 6C11.977 6.17242 11.4286 6.30028 10.8724 6.38224L9.13651 6.66892C7.88512 6.9556 6.53272 7.24139 5.18301 7.43251C4.79686 8.10054 4.31508 8.76858 3.83329 9.43749C3.61293 9.90269 3.35496 10.3495 3.0619 10.7736C2.74219 11.3349 2.38754 11.8759 2 12.3937C3.54279 13.0617 5.08558 13.7297 6.91618 14.4942C7.78411 14.8764 8.84512 15.2578 9.80958 15.7329C10.8703 16.2101 12.0275 16.6873 13.2813 17.1646C15.4033 16.2098 17.4279 15.2551 19.1637 14.4915C20.806 13.7288 22.3494 13.0611 23.7939 12.4883H23.7975ZM18.3932 7.90677C18.6828 8.38368 18.9716 8.95704 19.3577 9.52951C19.7438 10.102 20.1291 10.8656 20.6091 11.6301C19.5481 12.0123 18.3915 12.4892 17.1374 12.9661C15.8833 13.443 14.5336 13.9208 13.0873 14.4933C11.5445 13.9208 10.0974 13.443 8.74769 12.8706C7.39797 12.3937 6.24043 12.0114 5.08289 11.5345C5.46904 10.7709 5.75775 10.1029 6.04736 9.52951C6.33697 8.95616 6.52915 8.38368 6.81875 7.90677C7.82793 7.73975 8.82676 7.51642 9.81048 7.23785C10.7749 7.04673 11.6429 6.85561 12.5108 6.66538C13.3787 6.8565 14.3432 7.04762 15.3077 7.33341C16.2721 7.52719 17.3367 7.71565 18.3932 7.90677Z" fill="#FEFEFE"/>
</g>
<circle cx="13" cy="7" r="6.5" stroke="white"/>
<defs>
<filter id="filter0_d_0_1" x="0" y="4" width="25.7975" height="15.1646" filterUnits="userSpaceOnUse" color-interpolation-filters="sRGB">
<feFlood flood-opacity="0" result="BackgroundImageFix"/>
<feColorMatrix in="SourceAlpha" type="matrix" values="0 0 0 0 0 0 0 0 0 0 0 0 0 0 0 0 0 0 127 0" result="hardAlpha"/>
<feOffset/>
<feGaussianBlur stdDeviation="1"/>
<feColorMatrix type="matrix" values="0 0 0 0 0 0 0 0 0 0 0 0 0 0 0 0 0 0 0.329 0"/>
<feBlend mode="normal" in2="BackgroundImageFix" result="effect1_dropShadow_0_1"/>
<feBlend mode="normal" in="SourceGraphic" in2="effect1_dropShadow_0_1" result="shape"/>
</filter>
</defs>
</svg>
