<svg width="55" height="31" viewBox="0 0 55 31" fill="none" xmlns="http://www.w3.org/2000/svg">
<path d="M4.83523 30H0.176136L15.4744 0.90909H20.5455L26.1847 30H21.5256L17.2784 6.19318H17.0511L4.83523 30ZM7.50568 18.608H22.6193L21.9943 22.3011H6.88068L7.50568 18.608ZM49.5405 8.72159C49.55 7.29167 49.0859 6.19792 48.1484 5.44034C47.2204 4.68277 45.9231 4.30398 44.2564 4.30398C43.0632 4.30398 41.9979 4.49337 41.0604 4.87216C40.1323 5.24148 39.3748 5.75284 38.7876 6.40625C38.21 7.05019 37.8549 7.78409 37.7223 8.60795C37.5992 9.29924 37.6607 9.89583 37.907 10.3977C38.1626 10.8996 38.5272 11.321 39.0007 11.6619C39.4837 11.9934 40.014 12.2727 40.5916 12.5C41.1693 12.7178 41.728 12.8977 42.2678 13.0398L44.995 13.7784C45.8757 14.0057 46.7706 14.3134 47.6797 14.7017C48.5888 15.09 49.4079 15.6013 50.1371 16.2358C50.8662 16.8703 51.4107 17.6562 51.7706 18.5938C52.1304 19.5312 52.2015 20.6534 51.9837 21.9602C51.6996 23.608 51.032 25.071 49.9808 26.3494C48.9297 27.6278 47.5424 28.6364 45.8189 29.375C44.0954 30.1136 42.0973 30.483 39.8246 30.483C37.6465 30.483 35.8142 30.1373 34.3274 29.446C32.8501 28.7547 31.7659 27.7746 31.0746 26.5057C30.3833 25.2273 30.1371 23.7121 30.3359 21.9602H34.7536C34.6494 23.0114 34.8388 23.8873 35.3217 24.5881C35.8142 25.2794 36.5054 25.7955 37.3956 26.1364C38.2857 26.4678 39.2943 26.6335 40.4212 26.6335C41.6712 26.6335 42.8123 26.4394 43.8445 26.0511C44.8767 25.6534 45.7289 25.1042 46.4013 24.4034C47.0736 23.6932 47.4856 22.8646 47.6371 21.9176C47.7886 21.0559 47.6655 20.3504 47.2678 19.8011C46.8795 19.2519 46.2924 18.7973 45.5064 18.4375C44.7299 18.0777 43.8445 17.7604 42.8501 17.4858L39.5689 16.5483C37.3435 15.9138 35.6579 14.9811 34.5121 13.75C33.3662 12.5189 32.9543 10.8902 33.2763 8.86364C33.5604 7.1875 34.2611 5.72443 35.3786 4.47443C36.496 3.22443 37.888 2.25379 39.5547 1.5625C41.2214 0.861742 43.0301 0.511363 44.9808 0.511363C46.9505 0.511363 48.6267 0.861742 50.0092 1.5625C51.3918 2.26326 52.4145 3.22917 53.0774 4.46023C53.7403 5.69129 53.9723 7.11174 53.7734 8.72159H49.5405Z" fill="white"/>
</svg>
