<svg xmlns="http://www.w3.org/2000/svg" width="1200" height="10" viewBox="0 0 313.774 8.658">
  <g id="BARRA_TEMP" data-name="BARRA TEMP" transform="translate(-212.173 -40.866)">
    <g id="BARRA_DE_TEMP" data-name="BARRA DE TEMP">
      <g id="Grupo_19" data-name="Grupo 19">
        <g id="layer1" transform="translate(256.572 -115.05)">
          <g id="g37758" transform="translate(-44.399 155.915)">
            <g id="Grupo_17" data-name="Grupo 17" transform="translate(0 0)">
              <path id="path35868" d="M275.316,15.037v2.711H105.471V15.037Z" transform="translate(38.458 -12.077)" fill="#00b91a"/>
              <path id="path35629" d="M171,14.014a4.267,4.267,0,0,0-4.062,2.96H69.353v2.71h97.618A4.266,4.266,0,1,0,171,14.014Z" transform="translate(-29.918 -14.014)" fill="#ffda24"/>
              <path id="circle25399" d="M91.59,14.057A4.267,4.267,0,0,0,87.567,16.9H58.987l-3.265,2.69,31.806.037a4.267,4.267,0,1,0,4.062-5.575Z" transform="translate(-55.722 -13.933)" fill="#cf0000" fill-rule="evenodd"/>
            </g>
          </g>
        </g>
      </g>
    </g>
  </g>
</svg>
